<svg width="21" height="6" viewBox="0 0 21 6" fill="none" xmlns="http://www.w3.org/2000/svg">
<path d="M0.696 1.988C0.72 1.9 0.76 1.828 0.816 1.772C0.872 1.708 0.92 1.636 0.96 1.556C0.968 1.548 0.992 1.516 1.032 1.46C1.072 1.404 1.116 1.344 1.164 1.28C1.212 1.208 1.256 1.148 1.296 1.1C1.344 1.044 1.376 1.016 1.392 1.016C1.392 0.984 1.404 0.948 1.428 0.908C1.46 0.868 1.492 0.832 1.524 0.8C1.564 0.76 1.6 0.728 1.632 0.704C1.672 0.68 1.7 0.668 1.716 0.668H1.788L1.812 0.716H1.92C1.96 0.724 1.996 0.744 2.028 0.776C2.068 0.8 2.108 0.816 2.148 0.824H2.244C2.484 0.88 2.72 0.96 2.952 1.064C3.192 1.16 3.392 1.316 3.552 1.532C3.592 1.66 3.632 1.784 3.672 1.904C3.712 2.016 3.756 2.136 3.804 2.264C3.804 2.328 3.8 2.412 3.792 2.516C3.792 2.612 3.784 2.812 3.768 3.116V3.188C3.768 3.236 3.752 3.304 3.72 3.392C3.696 3.48 3.664 3.568 3.624 3.656C3.592 3.744 3.556 3.82 3.516 3.884C3.476 3.948 3.444 3.98 3.42 3.98L3.408 3.992C3.368 4.056 3.296 4.136 3.192 4.232C3.096 4.328 2.976 4.424 2.832 4.52C2.688 4.616 2.528 4.7 2.352 4.772C2.176 4.836 1.992 4.868 1.8 4.868C1.672 4.868 1.548 4.856 1.428 4.832C1.308 4.8 1.196 4.764 1.092 4.724L0.984 4.604L0.72 4.556C0.672 4.524 0.628 4.48 0.588 4.424C0.556 4.36 0.524 4.304 0.492 4.256C0.38 4.136 0.308 4.012 0.276 3.884C0.252 3.748 0.24 3.588 0.24 3.404C0.24 3.364 0.244 3.336 0.252 3.32C0.26 3.296 0.264 3.264 0.264 3.224V3.188C0.264 3.18 0.268 3.156 0.276 3.116C0.292 3.076 0.304 3.036 0.312 2.996C0.328 2.948 0.34 2.908 0.348 2.876C0.364 2.836 0.372 2.808 0.372 2.792L0.444 2.696C0.444 2.672 0.456 2.648 0.48 2.624C0.504 2.592 0.516 2.568 0.516 2.552L0.54 2.588C0.548 2.572 0.556 2.544 0.564 2.504C0.572 2.464 0.58 2.44 0.588 2.432L0.624 2.348C0.624 2.332 0.628 2.304 0.636 2.264C0.652 2.224 0.664 2.196 0.672 2.18H0.612C0.604 2.18 0.596 2.184 0.588 2.192L0.696 1.988ZM1.332 3.32C1.332 3.352 1.328 3.396 1.32 3.452C1.32 3.508 1.32 3.564 1.32 3.62C1.32 3.7 1.328 3.772 1.344 3.836L1.416 4.22L1.536 4.196C1.56 4.228 1.596 4.244 1.644 4.244C1.748 4.244 1.856 4.228 1.968 4.196C2.08 4.156 2.18 4.096 2.268 4.016L2.484 3.728L2.604 3.452L2.64 3.164C2.672 3.092 2.692 3.02 2.7 2.948C2.708 2.876 2.712 2.804 2.712 2.732V2.492C2.712 2.388 2.708 2.256 2.7 2.096C2.7 1.928 2.664 1.8 2.592 1.712C2.536 1.648 2.46 1.572 2.364 1.484C2.276 1.396 2.2 1.352 2.136 1.352C2.104 1.352 2.064 1.376 2.016 1.424C1.976 1.472 1.948 1.496 1.932 1.496C1.86 1.552 1.816 1.624 1.8 1.712C1.792 1.8 1.768 1.884 1.728 1.964L1.704 2.144C1.6 2.352 1.512 2.548 1.44 2.732C1.368 2.916 1.332 3.112 1.332 3.32ZM0.804 2.348L0.696 2.588C0.696 2.62 0.692 2.648 0.684 2.672C0.676 2.696 0.672 2.724 0.672 2.756L0.708 2.768L0.816 2.504C0.816 2.488 0.816 2.46 0.816 2.42C0.824 2.38 0.832 2.356 0.84 2.348H0.804ZM0.372 2.996C0.356 3.012 0.348 3.04 0.348 3.08L0.336 3.152L0.384 3.104C0.384 3.088 0.388 3.068 0.396 3.044C0.412 3.02 0.42 3.004 0.42 2.996L0.444 2.936L0.372 2.996ZM0.492 2.708C0.46 2.74 0.444 2.772 0.444 2.804V2.84L0.54 2.72L0.492 2.708ZM0.804 2.06C0.804 2.036 0.796 2.024 0.78 2.024C0.764 2.024 0.756 2.036 0.756 2.06C0.756 2.076 0.764 2.084 0.78 2.084C0.78 2.084 0.788 2.076 0.804 2.06ZM0.588 2.972L0.624 2.948L0.636 2.852L0.588 2.972ZM5.84297 5.3C5.81897 5.3 5.78297 5.296 5.73497 5.288C5.69497 5.288 5.64697 5.284 5.59097 5.276C5.54297 5.268 5.49497 5.256 5.44697 5.24C5.40697 5.232 5.37497 5.224 5.35097 5.216L5.06297 5.108C5.04697 5.108 5.01497 5.096 4.96697 5.072C4.91897 5.056 4.83897 5.028 4.72697 4.988L4.57097 4.796C4.57097 4.724 4.61097 4.656 4.69097 4.592C4.77097 4.528 4.84297 4.484 4.90697 4.46C4.91497 4.46 4.93497 4.464 4.96697 4.472C5.00697 4.48 5.04697 4.492 5.08697 4.508C5.12697 4.516 5.16297 4.524 5.19497 4.532C5.23497 4.54 5.25897 4.544 5.26697 4.544C5.33897 4.544 5.43497 4.54 5.55497 4.532C5.67497 4.524 5.79097 4.516 5.90297 4.508C6.02297 4.492 6.12297 4.476 6.20297 4.46C6.29097 4.436 6.33497 4.412 6.33497 4.388L6.39497 4.076C6.39497 3.988 6.36697 3.916 6.31097 3.86C6.25497 3.804 6.18697 3.776 6.10697 3.776C6.08297 3.776 6.06297 3.784 6.04697 3.8L5.72297 3.74H5.60297C5.53897 3.74 5.43897 3.728 5.30297 3.704C5.16697 3.672 5.03097 3.628 4.89497 3.572C4.76697 3.516 4.65097 3.444 4.54697 3.356C4.45097 3.268 4.40297 3.164 4.40297 3.044C4.40297 2.972 4.41097 2.924 4.42697 2.9C4.45097 2.876 4.47897 2.824 4.51097 2.744L4.47497 2.72C4.47497 2.696 4.48297 2.66 4.49897 2.612C4.52297 2.564 4.54697 2.516 4.57097 2.468C4.60297 2.412 4.63097 2.36 4.65497 2.312C4.67897 2.264 4.69497 2.228 4.70297 2.204L5.12297 1.736C5.13897 1.72 5.15497 1.716 5.17097 1.724C5.19497 1.724 5.20697 1.716 5.20697 1.7L5.48297 1.52H5.54297C5.54297 1.52 5.56697 1.512 5.61497 1.496L5.93897 1.436H6.04697L6.07097 1.46C6.11097 1.476 6.15097 1.484 6.19097 1.484C6.23897 1.484 6.29097 1.484 6.34697 1.484H6.55097C6.56697 1.484 6.58697 1.508 6.61097 1.556C6.64297 1.596 6.66697 1.616 6.68297 1.616C6.75497 1.664 6.81897 1.704 6.87497 1.736C6.93097 1.768 6.97897 1.804 7.01897 1.844C7.06697 1.876 7.10297 1.92 7.12697 1.976C7.15097 2.024 7.16297 2.096 7.16297 2.192C7.16297 2.216 7.14297 2.236 7.10297 2.252C7.06297 2.268 7.03497 2.284 7.01897 2.3H6.80297C6.79497 2.3 6.77497 2.304 6.74297 2.312C6.71897 2.32 6.68697 2.328 6.64697 2.336C6.61497 2.344 6.58297 2.352 6.55097 2.36C6.51897 2.368 6.49897 2.372 6.49097 2.372H6.04697C6.03097 2.412 5.98297 2.44 5.90297 2.456C5.83097 2.464 5.77497 2.48 5.73497 2.504C5.62297 2.568 5.55497 2.64 5.53097 2.72C5.50697 2.792 5.48697 2.884 5.47097 2.996C5.59097 3.076 5.73097 3.132 5.89097 3.164C6.05897 3.196 6.17497 3.212 6.23897 3.212L6.56297 3.308C6.77897 3.372 6.92697 3.464 7.00697 3.584C7.09497 3.696 7.15497 3.808 7.18697 3.92L7.22297 4.076V4.172C7.22297 4.204 7.21897 4.232 7.21097 4.256C7.20297 4.28 7.19497 4.372 7.18697 4.532L7.12697 4.712L7.09097 4.736C7.00297 4.856 6.92697 4.948 6.86297 5.012C6.80697 5.084 6.70297 5.132 6.55097 5.156C6.54297 5.156 6.53097 5.164 6.51497 5.18C6.50697 5.196 6.47897 5.212 6.43097 5.228C6.39097 5.244 6.32297 5.26 6.22697 5.276C6.13897 5.292 6.01097 5.3 5.84297 5.3ZM4.60697 2.984C4.60697 3.056 4.63497 3.108 4.69097 3.14C4.75497 3.172 4.81897 3.188 4.88297 3.188L4.84697 3.056V3.032C4.84697 2.976 4.85097 2.944 4.85897 2.936C4.86697 2.928 4.87097 2.892 4.87097 2.828C4.83897 2.828 4.82297 2.812 4.82297 2.78C4.82297 2.764 4.83097 2.736 4.84697 2.696C4.86297 2.656 4.87897 2.632 4.89497 2.624V2.696C4.91897 2.696 4.93097 2.676 4.93097 2.636C4.93897 2.596 4.94297 2.564 4.94297 2.54C4.94297 2.5 4.93497 2.48 4.91897 2.48L4.89497 2.54V2.384H4.87097C4.86297 2.408 4.84697 2.44 4.82297 2.48C4.79897 2.512 4.77897 2.54 4.76297 2.564C4.74697 2.62 4.73497 2.676 4.72697 2.732C4.72697 2.788 4.71497 2.844 4.69097 2.9C4.67497 2.94 4.65497 2.956 4.63097 2.948C4.61497 2.94 4.60697 2.952 4.60697 2.984ZM5.49497 1.892C5.35897 1.892 5.24297 1.948 5.14697 2.06C5.05897 2.164 4.99497 2.28 4.95497 2.408V2.42C5.01897 2.42 5.05897 2.38 5.07497 2.3C5.09897 2.22 5.12697 2.16 5.15897 2.12C5.16697 2.112 5.18697 2.1 5.21897 2.084C5.25097 2.068 5.28697 2.048 5.32697 2.024C5.36697 2 5.40297 1.98 5.43497 1.964C5.47497 1.94 5.50297 1.916 5.51897 1.892H5.49497ZM7.85803 3.716C7.85803 3.7 7.86203 3.688 7.87003 3.68C7.87803 3.664 7.88603 3.648 7.89403 3.632L7.93003 3.596C7.93003 3.484 7.96603 3.344 8.03803 3.176C8.11803 3.008 8.20603 2.892 8.30203 2.828L8.39803 2.78C8.41403 2.772 8.42203 2.756 8.42203 2.732C8.42203 2.7 8.42603 2.676 8.43403 2.66L8.48203 2.6C8.54603 2.512 8.61803 2.424 8.69803 2.336C8.77803 2.24 8.85403 2.156 8.92603 2.084C9.00603 2.012 9.07803 1.956 9.14203 1.916C9.20603 1.868 9.26203 1.844 9.31003 1.844C9.32603 1.844 9.33803 1.848 9.34603 1.856C9.36203 1.864 9.39803 1.876 9.45403 1.892L9.58603 2.06C9.61803 2.068 9.64603 2.1 9.67003 2.156L9.70603 2.24V2.432L9.74203 2.48C9.75803 2.496 9.77003 2.512 9.77803 2.528C9.78603 2.536 9.79803 2.544 9.81403 2.552L9.95803 2.648C9.96603 2.68 9.99003 2.72 10.03 2.768C10.07 2.816 10.11 2.864 10.15 2.912L10.318 3.104C10.334 3.128 10.35 3.172 10.366 3.236C10.382 3.3 10.394 3.368 10.402 3.44C10.418 3.512 10.43 3.58 10.438 3.644C10.446 3.7 10.45 3.74 10.45 3.764V3.86L10.342 4.112L10.33 4.208L10.21 4.34L10.03 4.484C9.99003 4.508 9.93803 4.52 9.87403 4.52C9.81003 4.52 9.75403 4.54 9.70603 4.58L9.61003 4.616C9.56203 4.648 9.52203 4.664 9.49003 4.664C9.48203 4.664 9.47403 4.664 9.46603 4.664C9.46603 4.656 9.46203 4.652 9.45403 4.652L9.31003 4.676C9.27803 4.7 9.21003 4.712 9.10603 4.712C9.05003 4.712 9.00603 4.708 8.97403 4.7L8.69803 4.628L8.42203 4.532C8.31003 4.5 8.22203 4.472 8.15803 4.448C8.10203 4.424 8.03803 4.344 7.96603 4.208C7.95003 4.168 7.93403 4.128 7.91803 4.088C7.90203 4.048 7.88603 4.016 7.87003 3.992L7.82203 3.8L7.85803 3.716ZM8.84203 4.124L8.90203 4.136C8.96603 4.12 9.04203 4.108 9.13003 4.1C9.21803 4.084 9.28203 4.064 9.32203 4.04L9.44203 3.956L9.53803 3.848L9.57403 3.74L9.43003 3.188L9.22603 3.104L9.19003 3.128C9.17403 3.136 9.15003 3.168 9.11803 3.224C9.08603 3.272 9.05003 3.332 9.01003 3.404C8.97803 3.476 8.94203 3.552 8.90203 3.632C8.87003 3.712 8.84603 3.78 8.83003 3.836L8.84203 4.124ZM8.39803 3.068C8.35803 3.108 8.31003 3.18 8.25403 3.284C8.19803 3.388 8.17003 3.48 8.17003 3.56C8.17003 3.592 8.17403 3.616 8.18203 3.632L8.20603 3.572L8.39803 3.224C8.43003 3.176 8.45003 3.14 8.45803 3.116L8.39803 3.068ZM12.1755 4.124V4.22C12.1755 4.276 12.1835 4.32 12.1995 4.352L12.2235 4.34C12.2235 4.372 12.2195 4.412 12.2115 4.46C12.2115 4.5 12.1955 4.528 12.1635 4.544L12.1035 5.072C12.0715 5.08 12.0355 5.084 11.9955 5.084H11.9355C11.9195 5.084 11.8995 5.092 11.8755 5.108L11.8635 5.012C11.8395 5.028 11.8275 5.052 11.8275 5.084V5.156V5.204C11.8115 5.188 11.7915 5.18 11.7675 5.18C11.7515 5.18 11.7435 5.18 11.7435 5.18C11.7515 5.188 11.7475 5.192 11.7315 5.192C11.7075 5.192 11.6595 5.176 11.5875 5.144C11.5155 5.112 11.4355 5.096 11.3475 5.096C11.2995 5.096 11.2635 5.1 11.2395 5.108C11.2395 5.092 11.2435 5.072 11.2515 5.048C11.2595 5.024 11.2635 5.004 11.2635 4.988C11.2235 4.948 11.1955 4.892 11.1795 4.82C11.1715 4.748 11.1355 4.712 11.0715 4.712H11.0475C11.0715 4.672 11.0835 4.628 11.0835 4.58C11.0915 4.524 11.0955 4.476 11.0955 4.436C11.0955 4.42 11.0875 4.372 11.0715 4.292L11.0595 4.136V4.04V3.992C11.0675 3.976 11.0835 3.96 11.1075 3.944C11.1395 3.928 11.1635 3.912 11.1795 3.896C11.1795 3.88 11.1715 3.856 11.1555 3.824C11.1395 3.792 11.1315 3.76 11.1315 3.728L11.1915 3.656C11.1835 3.656 11.1795 3.636 11.1795 3.596C11.1795 3.548 11.1795 3.492 11.1795 3.428C11.1875 3.364 11.1915 3.312 11.1915 3.272C11.1915 3.224 11.1875 3.2 11.1795 3.2L11.2875 1.832C11.2955 1.776 11.3115 1.744 11.3355 1.736C11.3675 1.72 11.4035 1.712 11.4435 1.712C11.4835 1.712 11.5355 1.724 11.5995 1.748C11.6635 1.764 11.7235 1.784 11.7795 1.808C11.8435 1.832 11.8995 1.86 11.9475 1.892C11.9955 1.916 12.0275 1.94 12.0435 1.964C12.0515 1.972 12.0635 2 12.0795 2.048C12.1035 2.096 12.1275 2.148 12.1515 2.204C12.1755 2.252 12.1995 2.3 12.2235 2.348C12.2555 2.388 12.2835 2.408 12.3075 2.408L12.3435 2.384C12.4475 2.32 12.5235 2.264 12.5715 2.216C12.6195 2.16 12.7035 2.12 12.8235 2.096C12.8235 2.064 12.8755 2.02 12.9795 1.964C13.0915 1.9 13.2075 1.84 13.3275 1.784C13.4555 1.72 13.5675 1.668 13.6635 1.628C13.7595 1.58 13.7915 1.556 13.7595 1.556C13.7995 1.556 13.8595 1.572 13.9395 1.604C14.0195 1.636 14.0915 1.684 14.1555 1.748L14.3835 1.976L14.2155 2.204L14.0355 2.264L14.0595 2.312C14.0195 2.36 13.9515 2.388 13.8555 2.396C13.7675 2.404 13.6995 2.424 13.6515 2.456C13.6515 2.464 13.6555 2.468 13.6635 2.468L13.6755 2.48C13.5555 2.512 13.4395 2.548 13.3275 2.588C13.2315 2.628 13.1315 2.672 13.0275 2.72C12.9235 2.76 12.8395 2.808 12.7755 2.864L12.5955 3.056C12.5955 3.048 12.5715 3.06 12.5235 3.092C12.4835 3.116 12.4355 3.152 12.3795 3.2C12.3315 3.24 12.2835 3.288 12.2355 3.344C12.1875 3.392 12.1635 3.436 12.1635 3.476V3.488L12.2595 3.524L12.1875 4.124H12.1755ZM13.2675 2.096C13.1555 2.128 13.0595 2.172 12.9795 2.228L12.8595 2.3L12.8715 2.324C12.9755 2.268 13.0795 2.22 13.1835 2.18C13.2955 2.132 13.3915 2.1 13.4715 2.084C13.4395 2.084 13.4035 2.084 13.3635 2.084C13.3235 2.084 13.2915 2.088 13.2675 2.096ZM12.6435 2.36C12.6275 2.376 12.5915 2.404 12.5355 2.444C12.4795 2.476 12.4435 2.5 12.4275 2.516L12.3555 2.576H12.3675C12.3835 2.552 12.4115 2.532 12.4515 2.516C12.4915 2.492 12.5315 2.472 12.5715 2.456C12.6195 2.432 12.6595 2.416 12.6915 2.408C12.7235 2.392 12.7395 2.376 12.7395 2.36C12.7395 2.344 12.7155 2.328 12.6675 2.312C12.6595 2.312 12.6555 2.32 12.6555 2.336C12.6555 2.344 12.6515 2.352 12.6435 2.36ZM16.6022 4.616C16.7462 4.656 16.8182 4.684 16.8182 4.7L16.8062 4.808C16.8062 4.896 16.8222 4.972 16.8542 5.036C16.8702 5.068 16.8862 5.088 16.9022 5.096C16.9022 5.112 16.8662 5.12 16.7942 5.12C16.7302 5.128 16.6502 5.136 16.5542 5.144C16.4662 5.152 16.3742 5.156 16.2782 5.156C16.1902 5.164 16.1182 5.168 16.0622 5.168H15.9782C15.8022 5.168 15.6542 5.14 15.5342 5.084C15.4142 5.028 15.3182 4.932 15.2462 4.796L15.1982 4.772L15.1742 4.616C15.1582 4.552 15.1422 4.492 15.1262 4.436C15.1102 4.38 15.1022 4.32 15.1022 4.256C15.1102 4.208 15.1302 4.168 15.1622 4.136C15.1942 4.096 15.2222 4.064 15.2462 4.04C15.2782 4.008 15.3022 3.984 15.3182 3.968C15.3342 3.952 15.3302 3.944 15.3062 3.944C15.3062 3.904 15.3302 3.852 15.3782 3.788C15.4262 3.724 15.4862 3.66 15.5582 3.596C15.6302 3.532 15.7022 3.472 15.7742 3.416C15.8542 3.352 15.9182 3.304 15.9662 3.272L16.0622 3.296C16.0782 3.296 16.1182 3.288 16.1822 3.272C16.2542 3.248 16.3102 3.228 16.3502 3.212L16.5182 3.092C16.5742 3.084 16.6022 3.056 16.6022 3.008L17.0702 2.792C17.0782 2.776 17.0902 2.76 17.1062 2.744C17.1302 2.72 17.1422 2.704 17.1422 2.696L17.0462 2.312C17.0462 2.296 17.0342 2.288 17.0102 2.288C17.0022 2.288 16.9982 2.292 16.9982 2.3C16.9982 2.3 16.9942 2.3 16.9862 2.3H16.9622C16.9222 2.3 16.8502 2.308 16.7462 2.324C16.6502 2.34 16.5502 2.36 16.4462 2.384C16.3422 2.408 16.2462 2.428 16.1582 2.444C16.0782 2.46 16.0382 2.468 16.0382 2.468C16.0302 2.476 16.0182 2.48 16.0022 2.48C15.9542 2.48 15.9022 2.456 15.8462 2.408C15.7982 2.36 15.7542 2.316 15.7142 2.276L15.5942 2.228L15.5342 2.18C15.5342 2.164 15.5302 2.152 15.5222 2.144C15.5142 2.128 15.5062 2.112 15.4982 2.096L15.4742 2.048C15.4742 2.008 15.5382 1.972 15.6662 1.94C15.8022 1.908 15.9702 1.88 16.1702 1.856C16.3702 1.832 16.5822 1.816 16.8062 1.808C17.0382 1.792 17.2502 1.784 17.4422 1.784H17.4782C17.5902 1.784 17.6822 1.804 17.7542 1.844C17.8262 1.876 17.8862 1.92 17.9342 1.976C17.9822 2.024 18.0222 2.08 18.0542 2.144C18.0862 2.2 18.1222 2.252 18.1622 2.3V2.504C18.1622 2.592 18.1622 2.664 18.1622 2.72C18.1702 2.768 18.1742 2.816 18.1742 2.864C18.1742 2.912 18.1702 2.964 18.1622 3.02C18.1542 3.068 18.1382 3.136 18.1142 3.224C18.1142 3.264 18.1222 3.3 18.1382 3.332C18.1542 3.356 18.1622 3.384 18.1622 3.416V3.428L18.1742 3.512L18.0782 3.62L18.1502 3.704L18.0662 3.812C18.0662 3.828 18.0582 3.848 18.0422 3.872C18.0342 3.896 18.0302 3.916 18.0302 3.932L18.0422 3.944L18.0182 4.136L18.1142 4.16L18.1022 4.232L18.0302 4.268L18.0542 4.316L18.0422 4.4C18.0022 4.472 17.9742 4.576 17.9582 4.712C17.9422 4.848 17.9302 4.948 17.9222 5.012C17.9142 5.028 17.8822 5.036 17.8262 5.036C17.7782 5.044 17.7222 5.048 17.6582 5.048C17.6022 5.056 17.5462 5.06 17.4902 5.06C17.4422 5.06 17.4182 5.06 17.4182 5.06C17.3462 5.06 17.2822 5.04 17.2262 5C17.1782 4.96 17.1382 4.912 17.1062 4.856C17.0822 4.792 17.0622 4.728 17.0462 4.664C17.0382 4.592 17.0342 4.528 17.0342 4.472C17.0342 4.336 17.0542 4.228 17.0942 4.148C17.1422 4.06 17.1662 3.94 17.1662 3.788C17.1502 3.724 17.1462 3.66 17.1542 3.596C17.1702 3.524 17.1422 3.488 17.0702 3.488C17.0542 3.504 17.0342 3.524 17.0102 3.548C16.9942 3.564 16.9782 3.576 16.9622 3.584C16.9542 3.576 16.9342 3.572 16.9022 3.572C16.8862 3.572 16.8502 3.584 16.7942 3.608C16.7382 3.632 16.6782 3.66 16.6142 3.692C16.5502 3.724 16.4902 3.756 16.4342 3.788C16.3862 3.82 16.3582 3.844 16.3502 3.86C16.2622 3.916 16.1742 3.964 16.0862 4.004C16.0062 4.044 15.9382 4.092 15.8822 4.148L15.8582 4.328C15.8582 4.336 15.8542 4.356 15.8462 4.388C15.8382 4.412 15.8342 4.436 15.8342 4.46L15.8462 4.472L15.8942 4.436L15.9302 4.496C15.9862 4.504 16.0422 4.508 16.0982 4.508C16.1542 4.5 16.1942 4.504 16.2182 4.52C16.2262 4.52 16.2302 4.52 16.2302 4.52C16.2382 4.512 16.2462 4.508 16.2542 4.508C16.2942 4.508 16.3422 4.528 16.3982 4.568C16.4622 4.608 16.5182 4.628 16.5662 4.628C16.5822 4.628 16.5942 4.624 16.6022 4.616ZM19.0431 5.336C19.0431 5.224 19.0471 5.12 19.0551 5.024C19.0711 4.936 19.0791 4.84 19.0791 4.736L19.3191 4.628L19.3911 4.652L19.4751 4.568C19.5231 4.544 19.5631 4.532 19.5951 4.532C19.6351 4.524 19.6831 4.52 19.7391 4.52C19.8191 4.52 19.9151 4.536 20.0271 4.568C20.1391 4.6 20.1951 4.672 20.1951 4.784C20.1951 4.864 20.1791 4.936 20.1471 5C20.1151 5.056 20.0951 5.116 20.0871 5.18V5.576C20.0231 5.64 19.9471 5.696 19.8591 5.744C19.7711 5.792 19.6751 5.816 19.5711 5.816C19.4271 5.816 19.3031 5.772 19.1991 5.684C19.0951 5.604 19.0431 5.488 19.0431 5.336Z" fill="black"/>
</svg>
