<svg width="41" height="9" viewBox="0 0 41 9" fill="none" xmlns="http://www.w3.org/2000/svg">
<path d="M5.37109 0.972656C5.76562 0.972656 6.12305 1.03125 6.44336 1.14844C6.76367 1.26562 7.03516 1.42578 7.25781 1.62891C7.48438 1.83203 7.6582 2.07031 7.7793 2.34375C7.90039 2.61328 7.96094 2.90039 7.96094 3.20508V6.76758C7.96094 7.07227 7.90039 7.36133 7.7793 7.63477C7.6582 7.9043 7.48438 8.14062 7.25781 8.34375C7.03516 8.54688 6.76367 8.70703 6.44336 8.82422C6.12305 8.94141 5.76562 9 5.37109 9H3.56641C3.17188 9 2.81445 8.94141 2.49414 8.82422C2.17383 8.70703 1.90039 8.54688 1.67383 8.34375C1.45117 8.14062 1.2793 7.9043 1.1582 7.63477C1.03711 7.36133 0.976562 7.07227 0.976562 6.76758V3.20508C0.976562 2.90039 1.03711 2.61328 1.1582 2.34375C1.2793 2.07031 1.45117 1.83203 1.67383 1.62891C1.90039 1.42578 2.17383 1.26562 2.49414 1.14844C2.81445 1.03125 3.17188 0.972656 3.56641 0.972656H5.37109ZM6.57812 2.44922L6.49609 1.95703L6.12695 1.58203L5.52344 1.5H3.95312L3.35547 1.58203L2.98047 1.95703L2.91016 2.44922V5.40234L2.98047 5.90625L3.36719 6.27539L3.95312 6.3457H5.52344L6.12695 6.27539L6.49609 5.90625L6.57812 5.40234V2.44922ZM5.875 5.66602L5.48828 5.72461H3.98828L3.60742 5.66602L3.51953 5.31445V2.50781L3.57812 2.18555L3.98828 2.12109H5.48828L5.89844 2.18555L5.95703 2.53125V5.33789L5.875 5.66602ZM12.3086 0.972656C12.7031 0.972656 13.0605 1.03125 13.3809 1.14844C13.7012 1.26562 13.9727 1.42578 14.1953 1.62891C14.4219 1.83203 14.5957 2.07031 14.7168 2.34375C14.8379 2.61328 14.8984 2.90039 14.8984 3.20508V6.76758C14.8984 7.07227 14.8379 7.36133 14.7168 7.63477C14.5957 7.9043 14.4219 8.14062 14.1953 8.34375C13.9727 8.54688 13.7012 8.70703 13.3809 8.82422C13.0605 8.94141 12.7031 9 12.3086 9H10.5039C10.1094 9 9.75195 8.94141 9.43164 8.82422C9.11133 8.70703 8.83789 8.54688 8.61133 8.34375C8.38867 8.14062 8.2168 7.9043 8.0957 7.63477C7.97461 7.36133 7.91406 7.07227 7.91406 6.76758V3.20508C7.91406 2.90039 7.97461 2.61328 8.0957 2.34375C8.2168 2.07031 8.38867 1.83203 8.61133 1.62891C8.83789 1.42578 9.11133 1.26562 9.43164 1.14844C9.75195 1.03125 10.1094 0.972656 10.5039 0.972656H12.3086ZM13.4102 4.51172L13.3281 4.00781L12.9531 3.63867L12.3438 3.57422H11.0312L10.6738 3.50391C10.6543 3.4375 10.6406 3.37891 10.6328 3.32812C10.625 3.27344 10.6113 3.2168 10.5918 3.1582V2.54297L10.6738 2.19727L11.0605 2.12109H12.5488L13.0996 2.23242L13.2402 1.59375L12.5605 1.5H11.0195L10.4336 1.58203L10.0527 1.95703L9.97656 2.44922V3.25195L10.0527 3.74414L10.4336 4.11328L11.0195 4.18945H12.3438L12.7012 4.24805C12.7129 4.30664 12.7266 4.36133 12.7422 4.41211C12.7578 4.46289 12.7715 4.51562 12.7832 4.57031V5.33789C12.7754 5.38867 12.7617 5.44336 12.7422 5.50195C12.7266 5.56055 12.7129 5.61523 12.7012 5.66602L12.3203 5.72461H10.8672L10.293 5.63086L10.1465 6.26367L10.832 6.3457H12.3555L12.9531 6.27539L13.3281 5.90625L13.4102 5.40234V4.51172ZM19.2461 0.972656C19.6406 0.972656 19.998 1.03125 20.3184 1.14844C20.6387 1.26562 20.9102 1.42578 21.1328 1.62891C21.3594 1.83203 21.5332 2.07031 21.6543 2.34375C21.7754 2.61328 21.8359 2.90039 21.8359 3.20508V6.76758C21.8359 7.07227 21.7754 7.36133 21.6543 7.63477C21.5332 7.9043 21.3594 8.14062 21.1328 8.34375C20.9102 8.54688 20.6387 8.70703 20.3184 8.82422C19.998 8.94141 19.6406 9 19.2461 9H17.4414C17.0469 9 16.6895 8.94141 16.3691 8.82422C16.0488 8.70703 15.7754 8.54688 15.5488 8.34375C15.3262 8.14062 15.1543 7.9043 15.0332 7.63477C14.9121 7.36133 14.8516 7.07227 14.8516 6.76758V3.20508C14.8516 2.90039 14.9121 2.61328 15.0332 2.34375C15.1543 2.07031 15.3262 1.83203 15.5488 1.62891C15.7754 1.42578 16.0488 1.26562 16.3691 1.14844C16.6895 1.03125 17.0469 0.972656 17.4414 0.972656H19.2461ZM20.4531 2.44922L20.3711 1.95703L20.002 1.58203L19.3984 1.5H17.8281L17.2305 1.58203L16.8555 1.95703L16.7852 2.44922V5.40234L16.8555 5.90625L17.2422 6.27539L17.8281 6.3457H19.3984L20.002 6.27539L20.3711 5.90625L20.4531 5.40234V2.44922ZM19.75 5.66602L19.3633 5.72461H17.8633L17.4824 5.66602L17.3945 5.31445V2.50781L17.4531 2.18555L17.8633 2.12109H19.3633L19.7734 2.18555L19.832 2.53125V5.33789L19.75 5.66602ZM26.1836 0.972656C26.5781 0.972656 26.9355 1.03125 27.2559 1.14844C27.5762 1.26562 27.8477 1.42578 28.0703 1.62891C28.2969 1.83203 28.4707 2.07031 28.5918 2.34375C28.7129 2.61328 28.7734 2.90039 28.7734 3.20508V6.76758C28.7734 7.07227 28.7129 7.36133 28.5918 7.63477C28.4707 7.9043 28.2969 8.14062 28.0703 8.34375C27.8477 8.54688 27.5762 8.70703 27.2559 8.82422C26.9355 8.94141 26.5781 9 26.1836 9H24.3789C23.9844 9 23.627 8.94141 23.3066 8.82422C22.9863 8.70703 22.7129 8.54688 22.4863 8.34375C22.2637 8.14062 22.0918 7.9043 21.9707 7.63477C21.8496 7.36133 21.7891 7.07227 21.7891 6.76758V3.20508C21.7891 2.90039 21.8496 2.61328 21.9707 2.34375C22.0918 2.07031 22.2637 1.83203 22.4863 1.62891C22.7129 1.42578 22.9863 1.26562 23.3066 1.14844C23.627 1.03125 23.9844 0.972656 24.3789 0.972656H26.1836ZM26.4824 4.89844V6.3457H27.1035V4.83398L26.8984 4.29492L26.2305 4.05469L26.875 3.74414L27.0566 3.2168V2.56641L26.9863 2.07422L26.5996 1.58203L26.0137 1.5H23.8281V6.3457H24.4551V4.39453H25.9785L26.3945 4.58203L26.4824 4.89844ZM25.9785 2.12109L26.3945 2.30273L26.4355 2.64258V3.26367L26.3477 3.58594L25.9785 3.76758H24.4551V2.12109H25.9785ZM33.8418 6.33984V5.00391V2.4375V1.94531L33.4434 1.57031L32.8574 1.5H31.5215L30.8359 1.58203L30.9824 2.2207L31.5332 2.10938H32.8398L33.1914 2.18555L33.2734 2.49609V3.86133L32.8574 3.79102H31.5215L30.9355 3.87891L30.5605 4.24805L30.4785 4.72852V5.41406L30.5605 5.90625L30.9355 6.27539L31.5215 6.3457H32.8047L33.2617 6.27539L33.8418 6.33984ZM33.2734 5.66602L32.8164 5.72461H31.5566L31.1875 5.66602L31.1055 5.31445V4.81055L31.1523 4.47656L31.5566 4.41797H32.8281L33.2734 4.46484V5.34961V5.66602ZM33.1211 0.972656C33.5156 0.972656 33.873 1.03125 34.1934 1.14844C34.5137 1.26562 34.7852 1.42578 35.0078 1.62891C35.2344 1.83203 35.4082 2.07031 35.5293 2.34375C35.6504 2.61328 35.7109 2.90039 35.7109 3.20508V6.76758C35.7109 7.07227 35.6504 7.36133 35.5293 7.63477C35.4082 7.9043 35.2344 8.14062 35.0078 8.34375C34.7852 8.54688 34.5137 8.70703 34.1934 8.82422C33.873 8.94141 33.5156 9 33.1211 9H31.3164C30.9219 9 30.5645 8.94141 30.2441 8.82422C29.9238 8.70703 29.6504 8.54688 29.4238 8.34375C29.2012 8.14062 29.0293 7.9043 28.9082 7.63477C28.7871 7.36133 28.7266 7.07227 28.7266 6.76758V3.20508C28.7266 2.90039 28.7871 2.61328 28.9082 2.34375C29.0293 2.07031 29.2012 1.83203 29.4238 1.62891C29.6504 1.42578 29.9238 1.26562 30.2441 1.14844C30.5645 1.03125 30.9219 0.972656 31.3164 0.972656H33.1211ZM38.6406 6.3457V5.58984H37.873V6.3457H38.6406ZM38.2539 9C37.8594 9 37.502 8.94141 37.1816 8.82422C36.8613 8.70703 36.5879 8.54688 36.3613 8.34375C36.1387 8.14062 35.9668 7.9043 35.8457 7.63477C35.7246 7.36133 35.6641 7.07227 35.6641 6.76758V3.20508C35.6641 2.90039 35.7246 2.61328 35.8457 2.34375C35.9668 2.07031 36.1387 1.83203 36.3613 1.62891C36.5879 1.42578 36.8613 1.26562 37.1816 1.14844C37.502 1.03125 37.8594 0.972656 38.2539 0.972656C38.6523 0.972656 39.0098 1.03125 39.3262 1.14844C39.6465 1.26562 39.9199 1.42578 40.1465 1.62891C40.373 1.83203 40.5469 2.07031 40.668 2.34375C40.7891 2.61328 40.8496 2.90039 40.8496 3.20508V6.76758C40.8496 7.07227 40.7891 7.36133 40.668 7.63477C40.5469 7.9043 40.373 8.14062 40.1465 8.34375C39.9199 8.54688 39.6465 8.70703 39.3262 8.82422C39.0098 8.94141 38.6523 9 38.2539 9Z" fill="black"/>
</svg>
