<svg width="31" height="10" viewBox="0 0 31 10" fill="none" xmlns="http://www.w3.org/2000/svg">
<path d="M2.052 3.252C2.372 2.532 2.744 1.984 3.168 1.608C3.592 1.224 4.052 1.032 4.548 1.032C4.66 1.032 4.768 1.04 4.872 1.056C4.976 1.072 5.076 1.096 5.172 1.128C4.66 1.44 4.18 2.2 3.732 3.408C3.292 4.616 3.072 5.716 3.072 6.708C3.072 7.156 3.132 7.5 3.252 7.74C3.372 7.98 3.544 8.1 3.768 8.1C4.096 8.1 4.432 7.888 4.776 7.464C5.12 7.04 5.424 6.472 5.688 5.76C5.88 5.256 6.024 4.736 6.12 4.2C6.224 3.656 6.276 3.14 6.276 2.652C6.276 1.852 6.16 1.304 5.928 1.008C5.696 0.704 5.3 0.551999 4.74 0.551999C3.756 0.551999 2.932 0.843999 2.268 1.428C1.612 2.004 1.284 2.74 1.284 3.636C1.284 3.748 1.288 3.848 1.296 3.936C1.312 4.016 1.34 4.1 1.38 4.188C1.388 4.22 1.392 4.244 1.392 4.26C1.4 4.268 1.404 4.276 1.404 4.284C0.996 4.284 0.692 4.204 0.492 4.044C0.292 3.876 0.192 3.62 0.192 3.276C0.192 2.828 0.348 2.388 0.66 1.956C0.98 1.516 1.42 1.132 1.98 0.804C2.428 0.548 2.912 0.352 3.432 0.215999C3.96 0.0719993 4.492 -7.15256e-07 5.028 -7.15256e-07C5.972 -7.15256e-07 6.68 0.259999 7.152 0.779999C7.632 1.292 7.872 2.056 7.872 3.072C7.872 3.736 7.776 4.42 7.584 5.124C7.392 5.828 7.128 6.456 6.792 7.008C6.384 7.68 5.896 8.192 5.328 8.544C4.76 8.896 4.132 9.072 3.444 9.072C2.74 9.072 2.204 8.868 1.836 8.46C1.476 8.052 1.296 7.452 1.296 6.66C1.296 6.148 1.364 5.584 1.5 4.968C1.636 4.344 1.82 3.772 2.052 3.252ZM11.7485 6.996C11.7485 7.092 11.7445 7.176 11.7365 7.248C11.7285 7.32 11.7165 7.388 11.7005 7.452C11.8605 7.356 12.0165 7.256 12.1685 7.152C12.3205 7.048 12.4525 6.948 12.5645 6.852H13.0685C12.8205 7.14 12.5445 7.408 12.2405 7.656C11.9445 7.896 11.6085 8.128 11.2325 8.352C11.0165 8.584 10.7405 8.764 10.4045 8.892C10.0685 9.012 9.71647 9.072 9.34847 9.072C8.81247 9.072 8.38447 8.928 8.06447 8.64C7.75247 8.344 7.59647 7.976 7.59647 7.536C7.59647 7.288 7.65647 7.064 7.77647 6.864C7.89647 6.656 8.04847 6.508 8.23247 6.42C8.50447 5.932 8.75647 5.412 8.98847 4.86C9.22847 4.3 9.46847 3.636 9.70847 2.868L11.4845 2.628C11.5085 3.228 11.5365 3.776 11.5685 4.272C11.6005 4.768 11.6405 5.308 11.6885 5.892C11.7125 6.228 11.7285 6.464 11.7365 6.6C11.7445 6.736 11.7485 6.868 11.7485 6.996ZM9.78047 4.164C9.67647 4.492 9.54847 4.836 9.39647 5.196C9.25247 5.548 9.05647 5.96 8.80847 6.432C8.89647 6.472 8.96447 6.528 9.01247 6.6C9.06047 6.672 9.08447 6.756 9.08447 6.852C9.08447 7.004 9.03247 7.14 8.92847 7.26C8.82447 7.38 8.70047 7.44 8.55647 7.44C8.47647 7.44 8.40847 7.428 8.35247 7.404C8.29647 7.372 8.25647 7.332 8.23247 7.284C8.23247 7.58 8.28847 7.796 8.40047 7.932C8.52047 8.06 8.70847 8.124 8.96447 8.124C9.29247 8.124 9.54847 8.028 9.73247 7.836C9.91647 7.644 10.0085 7.368 10.0085 7.008C10.0085 6.896 10.0045 6.784 9.99647 6.672C9.98847 6.552 9.97247 6.356 9.94847 6.084C9.90847 5.708 9.87647 5.376 9.85247 5.088C9.82847 4.8 9.80447 4.492 9.78047 4.164ZM12.4882 7.152C12.4882 6.696 12.5602 6.212 12.7043 5.7C12.8563 5.188 13.0603 4.732 13.3163 4.332C13.6123 3.86 13.9683 3.504 14.3843 3.264C14.8003 3.016 15.2643 2.892 15.7763 2.892C16.2883 2.892 16.6723 3.052 16.9283 3.372C17.1843 3.692 17.3123 4.172 17.3123 4.812C17.3283 4.82 17.3443 4.828 17.3603 4.836C17.3843 4.836 17.4123 4.836 17.4443 4.836C17.6923 4.836 17.9883 4.768 18.3323 4.632C18.6763 4.496 18.9963 4.324 19.2923 4.116L19.4003 4.44C19.1763 4.68 18.8763 4.888 18.5003 5.064C18.1323 5.24 17.7243 5.364 17.2763 5.436C17.1803 6.516 16.8683 7.388 16.3403 8.052C15.8123 8.716 15.1683 9.048 14.4083 9.048C13.7843 9.048 13.3083 8.888 12.9803 8.568C12.6522 8.248 12.4882 7.776 12.4882 7.152ZM15.8723 3.624C15.4883 3.624 15.1243 4.012 14.7803 4.788C14.4443 5.564 14.2763 6.3 14.2763 6.996C14.2763 7.372 14.3163 7.628 14.3963 7.764C14.4843 7.9 14.6483 7.968 14.8883 7.968C15.1843 7.968 15.4643 7.728 15.7283 7.248C16.0003 6.768 16.1843 6.176 16.2803 5.472C16.1683 5.448 16.0843 5.396 16.0283 5.316C15.9803 5.228 15.9563 5.112 15.9563 4.968C15.9563 4.816 15.9883 4.684 16.0523 4.572C16.1163 4.46 16.2083 4.376 16.3283 4.32C16.3123 4.064 16.2683 3.884 16.1963 3.78C16.1323 3.676 16.0243 3.624 15.8723 3.624ZM19.2017 9H17.4737L18.7457 3H20.4737L20.3177 3.744C20.6697 3.448 20.9457 3.252 21.1457 3.156C21.3537 3.052 21.5617 3 21.7697 3C22.0177 3 22.2177 3.088 22.3697 3.264C22.5217 3.432 22.5977 3.644 22.5977 3.9C22.5977 4.148 22.5177 4.356 22.3577 4.524C22.1977 4.692 21.9897 4.776 21.7337 4.776C21.5977 4.776 21.4897 4.744 21.4097 4.68C21.3377 4.616 21.2857 4.484 21.2537 4.284C21.2297 4.156 21.2017 4.076 21.1697 4.044C21.1377 4.004 21.0937 3.984 21.0377 3.984C20.9017 3.984 20.7737 4.012 20.6537 4.068C20.5337 4.124 20.3697 4.248 20.1617 4.44L19.2017 9ZM26.1422 3.552V3.636L26.2742 3H28.0022L27.1382 7.08C27.1222 7.152 27.1102 7.22 27.1022 7.284C27.0942 7.34 27.0902 7.4 27.0902 7.464C27.0902 7.64 27.1302 7.772 27.2102 7.86C27.2902 7.94 27.4142 7.98 27.5822 7.98C27.7902 7.98 27.9782 7.884 28.1462 7.692C28.3142 7.492 28.4502 7.212 28.5542 6.852H29.0582C28.8022 7.588 28.4702 8.144 28.0622 8.52C27.6542 8.888 27.1822 9.072 26.6462 9.072C26.3022 9.072 26.0262 8.976 25.8182 8.784C25.6182 8.592 25.5022 8.32 25.4702 7.968C25.2222 8.336 24.9462 8.612 24.6422 8.796C24.3462 8.98 24.0262 9.072 23.6822 9.072C23.1862 9.072 22.7942 8.904 22.5062 8.568C22.2262 8.232 22.0862 7.756 22.0862 7.14C22.0862 6.692 22.1542 6.224 22.2902 5.736C22.4262 5.248 22.6142 4.804 22.8542 4.404C23.1502 3.932 23.4942 3.572 23.8862 3.324C24.2782 3.068 24.7062 2.94 25.1702 2.94C25.4822 2.94 25.7222 2.996 25.8902 3.108C26.0582 3.212 26.1422 3.36 26.1422 3.552ZM26.0342 4.14C26.0342 4.02 25.9902 3.916 25.9022 3.828C25.8142 3.732 25.6942 3.684 25.5422 3.684C25.1022 3.684 24.7102 4.052 24.3662 4.788C24.0302 5.524 23.8622 6.252 23.8622 6.972C23.8622 7.284 23.9062 7.52 23.9942 7.68C24.0822 7.832 24.2382 7.908 24.4622 7.908C24.6702 7.908 24.8702 7.808 25.0622 7.608C25.2622 7.408 25.3942 7.156 25.4582 6.852L26.0342 4.14ZM30.8386 8.1C30.8386 8.364 30.7426 8.588 30.5506 8.772C30.3666 8.956 30.1426 9.048 29.8786 9.048C29.6146 9.048 29.3906 8.956 29.2066 8.772C29.0226 8.588 28.9306 8.364 28.9306 8.1C28.9306 7.836 29.0226 7.612 29.2066 7.428C29.3906 7.236 29.6146 7.14 29.8786 7.14C30.1426 7.14 30.3666 7.236 30.5506 7.428C30.7426 7.612 30.8386 7.836 30.8386 8.1Z" fill="black"/>
</svg>
